0
SECTION
2
HEADER
9
$INSUNITS
70
4
9
$ACADVER
1
AC1014
9
$HANDSEED
5
FFFF
0
ENDSEC
0
SECTION
2
TABLES
0
TABLE
2
VPORT
5
8
100
AcDbSymbolTable
0
ENDTAB
0
TABLE
2
LTYPE
5
5
100
AcDbSymbolTable
0
LTYPE
5
14
100
AcDbSymbolTableRecord
100
AcDbLinetypeTableRecord
2
BYBLOCK
70
0
0
LTYPE
5
15
100
AcDbSymbolTableRecord
100
AcDbLinetypeTableRecord
2
BYLAYER
70
0
0
ENDTAB
0
TABLE
2
LAYER
5
2
100
AcDbSymbolTable
70
2
0
LAYER
5
50
100
AcDbSymbolTableRecord
100
AcDbLayerTableRecord
2
0
70
0
6
CONTINUOUS
0
ENDTAB
0
TABLE
2
STYLE
5
3
100
AcDbSymbolTable
70
1
0
STYLE
5
11
100
AcDbSymbolTableRecord
100
AcDbTextStyleTableRecord
2
STANDARD
70
0
0
ENDTAB
0
TABLE
2
VIEW
5
6
100
AcDbSymbolTable
70
0
0
ENDTAB
0
TABLE
2
UCS
5
7
100
AcDbSymbolTable
70
0
0
ENDTAB
0
TABLE
2
APPID
5
9
100
AcDbSymbolTable
70
2
0
APPID
5
12
100
AcDbSymbolTableRecord
100
AcDbRegAppTableRecord
2
ACAD
70
0
0
ENDTAB
0
TABLE
2
DIMSTYLE
5
A
100
AcDbSymbolTable
70
1
0
ENDTAB
0
TABLE
2
BLOCK_RECORD
5
1
100
AcDbSymbolTable
70
1
0
BLOCK_RECORD
5
1F
100
AcDbSymbolTableRecord
100
AcDbBlockTableRecord
2
*MODEL_SPACE
0
BLOCK_RECORD
5
1B
100
AcDbSymbolTableRecord
100
AcDbBlockTableRecord
2
*PAPER_SPACE
0
ENDTAB
0
ENDSEC
0
SECTION
2
BLOCKS
0
BLOCK
5
20
100
AcDbEntity
100
AcDbBlockBegin
2
*MODEL_SPACE
0
ENDBLK
5
21
100
AcDbEntity
100
AcDbBlockEnd
0
BLOCK
5
1C
100
AcDbEntity
100
AcDbBlockBegin
2
*PAPER_SPACE
0
ENDBLK
5
1D
100
AcDbEntity
100
AcDbBlockEnd
0
ENDSEC
0
SECTION
2
ENTITIES
0
LWPOLYLINE
5
100
100
AcDbEntity
8
0
100
AcDbPolyline
90
4
70
1
43
0.0
10
-3.4262138120529739
20
3.3932972893084432e-16
10
2.7755575615628914e-15
20
3.4262138120529748
10
3.4262138120529739
20
-3.3932972893084432e-16
10
-2.6552430458412562e-15
20
-3.4262138120529748
0
LWPOLYLINE
5
101
100
AcDbEntity
8
0
100
AcDbPolyline
90
4
70
1
43
0.0
10
12.426213812052973
20
-3.3932972893084432e-16
10
8.9999999999999982
20
-3.4262138120529748
10
5.5737861879470261
20
3.3932972893084432e-16
10
9.0000000000000036
20
3.4262138120529748
0
LWPOLYLINE
5
102
100
AcDbEntity
8
0
100
AcDbPolyline
90
4
70
1
43
0.0
10
21.426213812052978
20
-3.3932972893084432e-16
10
18
20
-3.4262138120529748
10
14.573786187947027
20
3.3932972893084432e-16
10
18.000000000000004
20
3.4262138120529748
0
LWPOLYLINE
5
103
100
AcDbEntity
8
0
100
AcDbPolyline
90
4
70
1
43
0.0
10
30.426213812052975
20
-3.3932972893084432e-16
10
26.999999999999996
20
-3.4262138120529748
10
23.573786187947029
20
3.3932972893084432e-16
10
27.000000000000007
20
3.4262138120529748
0
LWPOLYLINE
5
104
100
AcDbEntity
8
0
100
AcDbPolyline
90
4
70
1
43
0.0
10
39.426213812052978
20
-3.3932972893084432e-16
10
36
20
-3.4262138120529748
10
32.573786187947029
20
3.3932972893084432e-16
10
36.000000000000007
20
3.4262138120529748
0
LWPOLYLINE
5
105
100
AcDbEntity
8
0
100
AcDbPolyline
90
4
70
1
43
0.0
10
48.426213812052978
20
-3.3932972893084432e-16
10
45
20
-3.4262138120529748
10
41.573786187947022
20
3.3932972893084432e-16
10
45
20
3.4262138120529748
0
LWPOLYLINE
5
106
100
AcDbEntity
8
0
100
AcDbPolyline
90
4
70
1
43
0.0
10
57.426213812052978
20
-3.3932972893084432e-16
10
54
20
-3.4262138120529748
10
50.573786187947022
20
3.3932972893084432e-16
10
54
20
3.4262138120529748
0
LWPOLYLINE
5
107
100
AcDbEntity
8
0
100
AcDbPolyline
90
4
70
1
43
0.0
10
66.426213812052964
20
-3.3932972893084432e-16
10
63
20
-3.4262138120529748
10
59.573786187947029
20
3.3932972893084432e-16
10
63
20
3.4262138120529748
0
LWPOLYLINE
5
108
100
AcDbEntity
8
0
100
AcDbPolyline
90
4
70
1
43
0.0
10
75.426213812052964
20
-3.3932972893084432e-16
10
72
20
-3.4262138120529748
10
68.573786187947036
20
3.3932972893084432e-16
10
72
20
3.4262138120529748
0
LWPOLYLINE
5
109
100
AcDbEntity
8
0
100
AcDbPolyline
90
4
70
1
43
0.0
10
84.426213812052978
20
-3.3932972893084432e-16
10
81
20
-3.4262138120529748
10
77.573786187947022
20
3.3932972893084432e-16
10
81
20
3.4262138120529748
0
LWPOLYLINE
5
110
100
AcDbEntity
8
0
100
AcDbPolyline
90
4
70
1
43
0.0
10
93.426213812052978
20
-3.3932972893084432e-16
10
90
20
-3.4262138120529748
10
86.573786187947022
20
3.3932972893084432e-16
10
90
20
3.4262138120529748
0
LWPOLYLINE
5
111
100
AcDbEntity
8
0
100
AcDbPolyline
90
4
70
1
43
0.0
10
102.42621381205298
20
-3.3932972893084432e-16
10
99
20
-3.4262138120529748
10
95.573786187947022
20
3.3932972893084432e-16
10
99
20
3.4262138120529748
0
LWPOLYLINE
5
112
100
AcDbEntity
8
0
100
AcDbPolyline
90
4
70
1
43
0.0
10
111.42621381205299
20
-3.3932972893084432e-16
10
108
20
-3.4262138120529748
10
104.57378618794704
20
3.3932972893084432e-16
10
108
20
3.4262138120529748
0
LWPOLYLINE
5
113
100
AcDbEntity
8
0
100
AcDbPolyline
90
4
70
1
43
0.0
10
120.42621381205299
20
-3.3932972893084432e-16
10
117.00000000000001
20
-3.4262138120529748
10
113.57378618794704
20
3.3932972893084432e-16
10
117.00000000000001
20
3.4262138120529748
0
LWPOLYLINE
5
114
100
AcDbEntity
8
0
100
AcDbPolyline
90
4
70
1
43
0.0
10
129.42621381205296
20
-3.3932972893084432e-16
10
126
20
-3.4262138120529748
10
122.57378618794702
20
3.3932972893084432e-16
10
126
20
3.4262138120529748
0
LWPOLYLINE
5
115
100
AcDbEntity
8
0
100
AcDbPolyline
90
4
70
1
43
0.0
10
138.42621381205299
20
-3.3932972893084432e-16
10
135
20
-3.4262138120529748
10
131.57378618794701
20
3.3932972893084432e-16
10
135
20
3.4262138120529748
0
LWPOLYLINE
5
116
100
AcDbEntity
8
0
100
AcDbPolyline
90
4
70
1
43
0.0
10
3.4262138120529739
20
9
10
-2.6552430458412562e-15
20
5.5737861879470252
10
-3.4262138120529739
20
9
10
2.7755575615628914e-15
20
12.426213812052975
0
LWPOLYLINE
5
117
100
AcDbEntity
8
0
100
AcDbPolyline
90
4
70
1
43
0.0
10
12.426213812052973
20
9
10
8.9999999999999982
20
5.5737861879470252
10
5.5737861879470261
20
9
10
9.0000000000000036
20
12.426213812052975
0
LWPOLYLINE
5
118
100
AcDbEntity
8
0
100
AcDbPolyline
90
4
70
1
43
0.0
10
21.426213812052978
20
9
10
18
20
5.5737861879470252
10
14.573786187947027
20
9
10
18.000000000000004
20
12.426213812052975
0
LWPOLYLINE
5
119
100
AcDbEntity
8
0
100
AcDbPolyline
90
4
70
1
43
0.0
10
30.426213812052975
20
9
10
26.999999999999996
20
5.5737861879470252
10
23.573786187947029
20
9
10
27.000000000000007
20
12.426213812052975
0
LWPOLYLINE
5
120
100
AcDbEntity
8
0
100
AcDbPolyline
90
4
70
1
43
0.0
10
39.426213812052978
20
9
10
36
20
5.5737861879470252
10
32.573786187947029
20
9
10
36.000000000000007
20
12.426213812052975
0
LWPOLYLINE
5
121
100
AcDbEntity
8
0
100
AcDbPolyline
90
4
70
1
43
0.0
10
48.426213812052978
20
9
10
45
20
5.5737861879470252
10
41.573786187947022
20
9
10
45
20
12.426213812052975
0
LWPOLYLINE
5
122
100
AcDbEntity
8
0
100
AcDbPolyline
90
4
70
1
43
0.0
10
57.426213812052978
20
9
10
54
20
5.5737861879470252
10
50.573786187947022
20
9
10
54
20
12.426213812052975
0
LWPOLYLINE
5
123
100
AcDbEntity
8
0
100
AcDbPolyline
90
4
70
1
43
0.0
10
66.426213812052964
20
9
10
63
20
5.5737861879470252
10
59.573786187947029
20
9
10
63
20
12.426213812052975
0
LWPOLYLINE
5
124
100
AcDbEntity
8
0
100
AcDbPolyline
90
4
70
1
43
0.0
10
75.426213812052964
20
9
10
72
20
5.5737861879470252
10
68.573786187947036
20
9
10
72
20
12.426213812052975
0
LWPOLYLINE
5
125
100
AcDbEntity
8
0
100
AcDbPolyline
90
4
70
1
43
0.0
10
84.426213812052978
20
9
10
81
20
5.5737861879470252
10
77.573786187947022
20
9
10
81
20
12.426213812052975
0
LWPOLYLINE
5
126
100
AcDbEntity
8
0
100
AcDbPolyline
90
4
70
1
43
0.0
10
93.426213812052978
20
9
10
90
20
5.5737861879470252
10
86.573786187947022
20
9
10
90
20
12.426213812052975
0
LWPOLYLINE
5
127
100
AcDbEntity
8
0
100
AcDbPolyline
90
4
70
1
43
0.0
10
102.42621381205298
20
9
10
99
20
5.5737861879470252
10
95.573786187947022
20
9
10
99
20
12.426213812052975
0
LWPOLYLINE
5
128
100
AcDbEntity
8
0
100
AcDbPolyline
90
4
70
1
43
0.0
10
111.42621381205299
20
9
10
108
20
5.5737861879470252
10
104.57378618794704
20
9
10
108
20
12.426213812052975
0
LWPOLYLINE
5
129
100
AcDbEntity
8
0
100
AcDbPolyline
90
4
70
1
43
0.0
10
120.42621381205299
20
9
10
117.00000000000001
20
5.5737861879470252
10
113.57378618794704
20
9
10
117.00000000000001
20
12.426213812052975
0
LWPOLYLINE
5
130
100
AcDbEntity
8
0
100
AcDbPolyline
90
4
70
1
43
0.0
10
129.42621381205296
20
9
10
126
20
5.5737861879470252
10
122.57378618794702
20
9
10
126
20
12.426213812052975
0
LWPOLYLINE
5
131
100
AcDbEntity
8
0
100
AcDbPolyline
90
4
70
1
43
0.0
10
138.42621381205299
20
9
10
135
20
5.5737861879470252
10
131.57378618794701
20
9
10
135
20
12.426213812052975
0
LWPOLYLINE
5
132
100
AcDbEntity
8
0
100
AcDbPolyline
90
4
70
1
43
0.0
10
3.4262138120529739
20
18
10
-2.6552430458412562e-15
20
14.573786187947025
10
-3.4262138120529739
20
18
10
2.7755575615628914e-15
20
21.426213812052978
0
LWPOLYLINE
5
133
100
AcDbEntity
8
0
100
AcDbPolyline
90
4
70
1
43
0.0
10
12.426213812052973
20
18
10
8.9999999999999982
20
14.573786187947025
10
5.5737861879470261
20
18
10
9.0000000000000036
20
21.426213812052978
0
LWPOLYLINE
5
134
100
AcDbEntity
8
0
100
AcDbPolyline
90
4
70
1
43
0.0
10
21.426213812052978
20
18
10
18
20
14.573786187947025
10
14.573786187947027
20
18
10
18.000000000000004
20
21.426213812052978
0
LWPOLYLINE
5
135
100
AcDbEntity
8
0
100
AcDbPolyline
90
4
70
1
43
0.0
10
30.426213812052975
20
18
10
26.999999999999996
20
14.573786187947025
10
23.573786187947029
20
18
10
27.000000000000007
20
21.426213812052978
0
LWPOLYLINE
5
136
100
AcDbEntity
8
0
100
AcDbPolyline
90
4
70
1
43
0.0
10
39.426213812052978
20
18
10
36
20
14.573786187947025
10
32.573786187947029
20
18
10
36.000000000000007
20
21.426213812052978
0
LWPOLYLINE
5
137
100
AcDbEntity
8
0
100
AcDbPolyline
90
4
70
1
43
0.0
10
48.426213812052978
20
18
10
45
20
14.573786187947025
10
41.573786187947022
20
18
10
45
20
21.426213812052978
0
LWPOLYLINE
5
138
100
AcDbEntity
8
0
100
AcDbPolyline
90
4
70
1
43
0.0
10
57.426213812052978
20
18
10
54
20
14.573786187947025
10
50.573786187947022
20
18
10
54
20
21.426213812052978
0
LWPOLYLINE
5
139
100
AcDbEntity
8
0
100
AcDbPolyline
90
4
70
1
43
0.0
10
66.426213812052964
20
18
10
63
20
14.573786187947025
10
59.573786187947029
20
18
10
63
20
21.426213812052978
0
LWPOLYLINE
5
140
100
AcDbEntity
8
0
100
AcDbPolyline
90
4
70
1
43
0.0
10
75.426213812052964
20
18
10
72
20
14.573786187947025
10
68.573786187947036
20
18
10
72
20
21.426213812052978
0
LWPOLYLINE
5
141
100
AcDbEntity
8
0
100
AcDbPolyline
90
4
70
1
43
0.0
10
84.426213812052978
20
18
10
81
20
14.573786187947025
10
77.573786187947022
20
18
10
81
20
21.426213812052978
0
LWPOLYLINE
5
142
100
AcDbEntity
8
0
100
AcDbPolyline
90
4
70
1
43
0.0
10
93.426213812052978
20
18
10
90
20
14.573786187947025
10
86.573786187947022
20
18
10
90
20
21.426213812052978
0
LWPOLYLINE
5
143
100
AcDbEntity
8
0
100
AcDbPolyline
90
4
70
1
43
0.0
10
102.42621381205298
20
18
10
99
20
14.573786187947025
10
95.573786187947022
20
18
10
99
20
21.426213812052978
0
LWPOLYLINE
5
144
100
AcDbEntity
8
0
100
AcDbPolyline
90
4
70
1
43
0.0
10
111.42621381205299
20
18
10
108
20
14.573786187947025
10
104.57378618794704
20
18
10
108
20
21.426213812052978
0
LWPOLYLINE
5
145
100
AcDbEntity
8
0
100
AcDbPolyline
90
4
70
1
43
0.0
10
120.42621381205299
20
18
10
117.00000000000001
20
14.573786187947025
10
113.57378618794704
20
18
10
117.00000000000001
20
21.426213812052978
0
LWPOLYLINE
5
146
100
AcDbEntity
8
0
100
AcDbPolyline
90
4
70
1
43
0.0
10
129.42621381205296
20
18
10
126
20
14.573786187947025
10
122.57378618794702
20
18
10
126
20
21.426213812052978
0
LWPOLYLINE
5
147
100
AcDbEntity
8
0
100
AcDbPolyline
90
4
70
1
43
0.0
10
138.42621381205299
20
18
10
135
20
14.573786187947025
10
131.57378618794701
20
18
10
135
20
21.426213812052978
0
LWPOLYLINE
5
148
100
AcDbEntity
8
0
100
AcDbPolyline
90
4
70
1
43
0.0
10
3.4262138120529739
20
27
10
-2.6552430458412562e-15
20
23.573786187947029
10
-3.4262138120529739
20
27
10
2.7755575615628914e-15
20
30.426213812052975
0
LWPOLYLINE
5
149
100
AcDbEntity
8
0
100
AcDbPolyline
90
4
70
1
43
0.0
10
12.426213812052973
20
27
10
8.9999999999999982
20
23.573786187947029
10
5.5737861879470261
20
27
10
9.0000000000000036
20
30.426213812052975
0
LWPOLYLINE
5
150
100
AcDbEntity
8
0
100
AcDbPolyline
90
4
70
1
43
0.0
10
21.426213812052978
20
27
10
18
20
23.573786187947029
10
14.573786187947027
20
27
10
18.000000000000004
20
30.426213812052975
0
LWPOLYLINE
5
151
100
AcDbEntity
8
0
100
AcDbPolyline
90
4
70
1
43
0.0
10
30.426213812052975
20
27
10
26.999999999999996
20
23.573786187947029
10
23.573786187947029
20
27
10
27.000000000000007
20
30.426213812052975
0
LWPOLYLINE
5
152
100
AcDbEntity
8
0
100
AcDbPolyline
90
4
70
1
43
0.0
10
39.426213812052978
20
27
10
36
20
23.573786187947029
10
32.573786187947029
20
27
10
36.000000000000007
20
30.426213812052975
0
LWPOLYLINE
5
153
100
AcDbEntity
8
0
100
AcDbPolyline
90
4
70
1
43
0.0
10
48.426213812052978
20
27
10
45
20
23.573786187947029
10
41.573786187947022
20
27
10
45
20
30.426213812052975
0
LWPOLYLINE
5
154
100
AcDbEntity
8
0
100
AcDbPolyline
90
4
70
1
43
0.0
10
57.426213812052978
20
27
10
54
20
23.573786187947029
10
50.573786187947022
20
27
10
54
20
30.426213812052975
0
LWPOLYLINE
5
155
100
AcDbEntity
8
0
100
AcDbPolyline
90
4
70
1
43
0.0
10
66.426213812052964
20
27
10
63
20
23.573786187947029
10
59.573786187947029
20
27
10
63
20
30.426213812052975
0
LWPOLYLINE
5
156
100
AcDbEntity
8
0
100
AcDbPolyline
90
4
70
1
43
0.0
10
75.426213812052964
20
27
10
72
20
23.573786187947029
10
68.573786187947036
20
27
10
72
20
30.426213812052975
0
LWPOLYLINE
5
157
100
AcDbEntity
8
0
100
AcDbPolyline
90
4
70
1
43
0.0
10
84.426213812052978
20
27
10
81
20
23.573786187947029
10
77.573786187947022
20
27
10
81
20
30.426213812052975
0
LWPOLYLINE
5
158
100
AcDbEntity
8
0
100
AcDbPolyline
90
4
70
1
43
0.0
10
93.426213812052978
20
27
10
90
20
23.573786187947029
10
86.573786187947022
20
27
10
90
20
30.426213812052975
0
LWPOLYLINE
5
159
100
AcDbEntity
8
0
100
AcDbPolyline
90
4
70
1
43
0.0
10
102.42621381205298
20
27
10
99
20
23.573786187947029
10
95.573786187947022
20
27
10
99
20
30.426213812052975
0
LWPOLYLINE
5
160
100
AcDbEntity
8
0
100
AcDbPolyline
90
4
70
1
43
0.0
10
111.42621381205299
20
27
10
108
20
23.573786187947029
10
104.57378618794704
20
27
10
108
20
30.426213812052975
0
LWPOLYLINE
5
161
100
AcDbEntity
8
0
100
AcDbPolyline
90
4
70
1
43
0.0
10
120.42621381205299
20
27
10
117.00000000000001
20
23.573786187947029
10
113.57378618794704
20
27
10
117.00000000000001
20
30.426213812052975
0
LWPOLYLINE
5
162
100
AcDbEntity
8
0
100
AcDbPolyline
90
4
70
1
43
0.0
10
129.42621381205296
20
27
10
126
20
23.573786187947029
10
122.57378618794702
20
27
10
126
20
30.426213812052975
0
LWPOLYLINE
5
163
100
AcDbEntity
8
0
100
AcDbPolyline
90
4
70
1
43
0.0
10
138.42621381205299
20
27
10
135
20
23.573786187947029
10
131.57378618794701
20
27
10
135
20
30.426213812052975
0
LWPOLYLINE
5
164
100
AcDbEntity
8
0
100
AcDbPolyline
90
4
70
1
43
0.0
10
3.4262138120529739
20
36
10
-2.6552430458412562e-15
20
32.573786187947029
10
-3.4262138120529739
20
36
10
2.7755575615628914e-15
20
39.426213812052978
0
LWPOLYLINE
5
165
100
AcDbEntity
8
0
100
AcDbPolyline
90
4
70
1
43
0.0
10
12.426213812052973
20
36
10
8.9999999999999982
20
32.573786187947029
10
5.5737861879470261
20
36
10
9.0000000000000036
20
39.426213812052978
0
LWPOLYLINE
5
166
100
AcDbEntity
8
0
100
AcDbPolyline
90
4
70
1
43
0.0
10
21.426213812052978
20
36
10
18
20
32.573786187947029
10
14.573786187947027
20
36
10
18.000000000000004
20
39.426213812052978
0
LWPOLYLINE
5
167
100
AcDbEntity
8
0
100
AcDbPolyline
90
4
70
1
43
0.0
10
30.426213812052975
20
36
10
26.999999999999996
20
32.573786187947029
10
23.573786187947029
20
36
10
27.000000000000007
20
39.426213812052978
0
LWPOLYLINE
5
168
100
AcDbEntity
8
0
100
AcDbPolyline
90
4
70
1
43
0.0
10
39.426213812052978
20
36
10
36
20
32.573786187947029
10
32.573786187947029
20
36
10
36.000000000000007
20
39.426213812052978
0
LWPOLYLINE
5
169
100
AcDbEntity
8
0
100
AcDbPolyline
90
4
70
1
43
0.0
10
48.426213812052978
20
36
10
45
20
32.573786187947029
10
41.573786187947022
20
36
10
45
20
39.426213812052978
0
LWPOLYLINE
5
170
100
AcDbEntity
8
0
100
AcDbPolyline
90
4
70
1
43
0.0
10
57.426213812052978
20
36
10
54
20
32.573786187947029
10
50.573786187947022
20
36
10
54
20
39.426213812052978
0
LWPOLYLINE
5
171
100
AcDbEntity
8
0
100
AcDbPolyline
90
4
70
1
43
0.0
10
66.426213812052964
20
36
10
63
20
32.573786187947029
10
59.573786187947029
20
36
10
63
20
39.426213812052978
0
LWPOLYLINE
5
172
100
AcDbEntity
8
0
100
AcDbPolyline
90
4
70
1
43
0.0
10
75.426213812052964
20
36
10
72
20
32.573786187947029
10
68.573786187947036
20
36
10
72
20
39.426213812052978
0
LWPOLYLINE
5
173
100
AcDbEntity
8
0
100
AcDbPolyline
90
4
70
1
43
0.0
10
84.426213812052978
20
36
10
81
20
32.573786187947029
10
77.573786187947022
20
36
10
81
20
39.426213812052978
0
LWPOLYLINE
5
174
100
AcDbEntity
8
0
100
AcDbPolyline
90
4
70
1
43
0.0
10
93.426213812052978
20
36
10
90
20
32.573786187947029
10
86.573786187947022
20
36
10
90
20
39.426213812052978
0
LWPOLYLINE
5
175
100
AcDbEntity
8
0
100
AcDbPolyline
90
4
70
1
43
0.0
10
102.42621381205298
20
36
10
99
20
32.573786187947029
10
95.573786187947022
20
36
10
99
20
39.426213812052978
0
LWPOLYLINE
5
176
100
AcDbEntity
8
0
100
AcDbPolyline
90
4
70
1
43
0.0
10
111.42621381205299
20
36
10
108
20
32.573786187947029
10
104.57378618794704
20
36
10
108
20
39.426213812052978
0
LWPOLYLINE
5
177
100
AcDbEntity
8
0
100
AcDbPolyline
90
4
70
1
43
0.0
10
120.42621381205299
20
36
10
117.00000000000001
20
32.573786187947029
10
113.57378618794704
20
36
10
117.00000000000001
20
39.426213812052978
0
LWPOLYLINE
5
178
100
AcDbEntity
8
0
100
AcDbPolyline
90
4
70
1
43
0.0
10
129.42621381205296
20
36
10
126
20
32.573786187947029
10
122.57378618794702
20
36
10
126
20
39.426213812052978
0
LWPOLYLINE
5
179
100
AcDbEntity
8
0
100
AcDbPolyline
90
4
70
1
43
0.0
10
138.42621381205299
20
36
10
135
20
32.573786187947029
10
131.57378618794701
20
36
10
135
20
39.426213812052978
0
LWPOLYLINE
5
180
100
AcDbEntity
8
0
100
AcDbPolyline
90
4
70
1
43
0.0
10
3.4262138120529739
20
45
10
-2.6552430458412562e-15
20
41.573786187947022
10
-3.4262138120529739
20
45
10
2.7755575615628914e-15
20
48.426213812052978
0
LWPOLYLINE
5
181
100
AcDbEntity
8
0
100
AcDbPolyline
90
4
70
1
43
0.0
10
12.426213812052973
20
45
10
8.9999999999999982
20
41.573786187947022
10
5.5737861879470261
20
45
10
9.0000000000000036
20
48.426213812052978
0
LWPOLYLINE
5
182
100
AcDbEntity
8
0
100
AcDbPolyline
90
4
70
1
43
0.0
10
21.426213812052978
20
45
10
18
20
41.573786187947022
10
14.573786187947027
20
45
10
18.000000000000004
20
48.426213812052978
0
LWPOLYLINE
5
183
100
AcDbEntity
8
0
100
AcDbPolyline
90
4
70
1
43
0.0
10
30.426213812052975
20
45
10
26.999999999999996
20
41.573786187947022
10
23.573786187947029
20
45
10
27.000000000000007
20
48.426213812052978
0
LWPOLYLINE
5
184
100
AcDbEntity
8
0
100
AcDbPolyline
90
4
70
1
43
0.0
10
39.426213812052978
20
45
10
36
20
41.573786187947022
10
32.573786187947029
20
45
10
36.000000000000007
20
48.426213812052978
0
LWPOLYLINE
5
185
100
AcDbEntity
8
0
100
AcDbPolyline
90
4
70
1
43
0.0
10
48.426213812052978
20
45
10
45
20
41.573786187947022
10
41.573786187947022
20
45
10
45
20
48.426213812052978
0
LWPOLYLINE
5
186
100
AcDbEntity
8
0
100
AcDbPolyline
90
4
70
1
43
0.0
10
57.426213812052978
20
45
10
54
20
41.573786187947022
10
50.573786187947022
20
45
10
54
20
48.426213812052978
0
LWPOLYLINE
5
187
100
AcDbEntity
8
0
100
AcDbPolyline
90
4
70
1
43
0.0
10
66.426213812052964
20
45
10
63
20
41.573786187947022
10
59.573786187947029
20
45
10
63
20
48.426213812052978
0
LWPOLYLINE
5
188
100
AcDbEntity
8
0
100
AcDbPolyline
90
4
70
1
43
0.0
10
75.426213812052964
20
45
10
72
20
41.573786187947022
10
68.573786187947036
20
45
10
72
20
48.426213812052978
0
LWPOLYLINE
5
189
100
AcDbEntity
8
0
100
AcDbPolyline
90
4
70
1
43
0.0
10
84.426213812052978
20
45
10
81
20
41.573786187947022
10
77.573786187947022
20
45
10
81
20
48.426213812052978
0
LWPOLYLINE
5
190
100
AcDbEntity
8
0
100
AcDbPolyline
90
4
70
1
43
0.0
10
93.426213812052978
20
45
10
90
20
41.573786187947022
10
86.573786187947022
20
45
10
90
20
48.426213812052978
0
LWPOLYLINE
5
191
100
AcDbEntity
8
0
100
AcDbPolyline
90
4
70
1
43
0.0
10
102.42621381205298
20
45
10
99
20
41.573786187947022
10
95.573786187947022
20
45
10
99
20
48.426213812052978
0
LWPOLYLINE
5
192
100
AcDbEntity
8
0
100
AcDbPolyline
90
4
70
1
43
0.0
10
111.42621381205299
20
45
10
108
20
41.573786187947022
10
104.57378618794704
20
45
10
108
20
48.426213812052978
0
LWPOLYLINE
5
193
100
AcDbEntity
8
0
100
AcDbPolyline
90
4
70
1
43
0.0
10
120.42621381205299
20
45
10
117.00000000000001
20
41.573786187947022
10
113.57378618794704
20
45
10
117.00000000000001
20
48.426213812052978
0
LWPOLYLINE
5
194
100
AcDbEntity
8
0
100
AcDbPolyline
90
4
70
1
43
0.0
10
129.42621381205296
20
45
10
126
20
41.573786187947022
10
122.57378618794702
20
45
10
126
20
48.426213812052978
0
LWPOLYLINE
5
195
100
AcDbEntity
8
0
100
AcDbPolyline
90
4
70
1
43
0.0
10
138.42621381205299
20
45
10
135
20
41.573786187947022
10
131.57378618794701
20
45
10
135
20
48.426213812052978
0
LWPOLYLINE
5
196
100
AcDbEntity
8
0
100
AcDbPolyline
90
4
70
1
43
0.0
10
3.4262138120529739
20
54
10
-2.6552430458412562e-15
20
50.573786187947022
10
-3.4262138120529739
20
54
10
2.7755575615628914e-15
20
57.426213812052978
0
LWPOLYLINE
5
197
100
AcDbEntity
8
0
100
AcDbPolyline
90
4
70
1
43
0.0
10
12.426213812052973
20
54
10
8.9999999999999982
20
50.573786187947022
10
5.5737861879470261
20
54
10
9.0000000000000036
20
57.426213812052978
0
LWPOLYLINE
5
198
100
AcDbEntity
8
0
100
AcDbPolyline
90
4
70
1
43
0.0
10
21.426213812052978
20
54
10
18
20
50.573786187947022
10
14.573786187947027
20
54
10
18.000000000000004
20
57.426213812052978
0
LWPOLYLINE
5
199
100
AcDbEntity
8
0
100
AcDbPolyline
90
4
70
1
43
0.0
10
30.426213812052975
20
54
10
26.999999999999996
20
50.573786187947022
10
23.573786187947029
20
54
10
27.000000000000007
20
57.426213812052978
0
LWPOLYLINE
5
200
100
AcDbEntity
8
0
100
AcDbPolyline
90
4
70
1
43
0.0
10
39.426213812052978
20
54
10
36
20
50.573786187947022
10
32.573786187947029
20
54
10
36.000000000000007
20
57.426213812052978
0
LWPOLYLINE
5
201
100
AcDbEntity
8
0
100
AcDbPolyline
90
4
70
1
43
0.0
10
48.426213812052978
20
54
10
45
20
50.573786187947022
10
41.573786187947022
20
54
10
45
20
57.426213812052978
0
LWPOLYLINE
5
202
100
AcDbEntity
8
0
100
AcDbPolyline
90
4
70
1
43
0.0
10
57.426213812052978
20
54
10
54
20
50.573786187947022
10
50.573786187947022
20
54
10
54
20
57.426213812052978
0
LWPOLYLINE
5
203
100
AcDbEntity
8
0
100
AcDbPolyline
90
4
70
1
43
0.0
10
66.426213812052964
20
54
10
63
20
50.573786187947022
10
59.573786187947029
20
54
10
63
20
57.426213812052978
0
LWPOLYLINE
5
204
100
AcDbEntity
8
0
100
AcDbPolyline
90
4
70
1
43
0.0
10
75.426213812052964
20
54
10
72
20
50.573786187947022
10
68.573786187947036
20
54
10
72
20
57.426213812052978
0
LWPOLYLINE
5
205
100
AcDbEntity
8
0
100
AcDbPolyline
90
4
70
1
43
0.0
10
84.426213812052978
20
54
10
81
20
50.573786187947022
10
77.573786187947022
20
54
10
81
20
57.426213812052978
0
LWPOLYLINE
5
206
100
AcDbEntity
8
0
100
AcDbPolyline
90
4
70
1
43
0.0
10
93.426213812052978
20
54
10
90
20
50.573786187947022
10
86.573786187947022
20
54
10
90
20
57.426213812052978
0
LWPOLYLINE
5
207
100
AcDbEntity
8
0
100
AcDbPolyline
90
4
70
1
43
0.0
10
102.42621381205298
20
54
10
99
20
50.573786187947022
10
95.573786187947022
20
54
10
99
20
57.426213812052978
0
LWPOLYLINE
5
208
100
AcDbEntity
8
0
100
AcDbPolyline
90
4
70
1
43
0.0
10
111.42621381205299
20
54
10
108
20
50.573786187947022
10
104.57378618794704
20
54
10
108
20
57.426213812052978
0
LWPOLYLINE
5
209
100
AcDbEntity
8
0
100
AcDbPolyline
90
4
70
1
43
0.0
10
120.42621381205299
20
54
10
117.00000000000001
20
50.573786187947022
10
113.57378618794704
20
54
10
117.00000000000001
20
57.426213812052978
0
LWPOLYLINE
5
210
100
AcDbEntity
8
0
100
AcDbPolyline
90
4
70
1
43
0.0
10
129.42621381205296
20
54
10
126
20
50.573786187947022
10
122.57378618794702
20
54
10
126
20
57.426213812052978
0
LWPOLYLINE
5
211
100
AcDbEntity
8
0
100
AcDbPolyline
90
4
70
1
43
0.0
10
138.42621381205299
20
54
10
135
20
50.573786187947022
10
131.57378618794701
20
54
10
135
20
57.426213812052978
0
LWPOLYLINE
5
212
100
AcDbEntity
8
0
100
AcDbPolyline
90
4
70
1
43
0.0
10
3.4262138120529739
20
63
10
-2.6552430458412562e-15
20
59.573786187947022
10
-3.4262138120529739
20
63
10
2.7755575615628914e-15
20
66.426213812052978
0
LWPOLYLINE
5
213
100
AcDbEntity
8
0
100
AcDbPolyline
90
4
70
1
43
0.0
10
12.426213812052973
20
63
10
8.9999999999999982
20
59.573786187947022
10
5.5737861879470261
20
63
10
9.0000000000000036
20
66.426213812052978
0
LWPOLYLINE
5
214
100
AcDbEntity
8
0
100
AcDbPolyline
90
4
70
1
43
0.0
10
21.426213812052978
20
63
10
18
20
59.573786187947022
10
14.573786187947027
20
63
10
18.000000000000004
20
66.426213812052978
0
LWPOLYLINE
5
215
100
AcDbEntity
8
0
100
AcDbPolyline
90
4
70
1
43
0.0
10
30.426213812052975
20
63
10
26.999999999999996
20
59.573786187947022
10
23.573786187947029
20
63
10
27.000000000000007
20
66.426213812052978
0
LWPOLYLINE
5
216
100
AcDbEntity
8
0
100
AcDbPolyline
90
4
70
1
43
0.0
10
39.426213812052978
20
63
10
36
20
59.573786187947022
10
32.573786187947029
20
63
10
36.000000000000007
20
66.426213812052978
0
LWPOLYLINE
5
217
100
AcDbEntity
8
0
100
AcDbPolyline
90
4
70
1
43
0.0
10
48.426213812052978
20
63
10
45
20
59.573786187947022
10
41.573786187947022
20
63
10
45
20
66.426213812052978
0
LWPOLYLINE
5
218
100
AcDbEntity
8
0
100
AcDbPolyline
90
4
70
1
43
0.0
10
57.426213812052978
20
63
10
54
20
59.573786187947022
10
50.573786187947022
20
63
10
54
20
66.426213812052978
0
LWPOLYLINE
5
219
100
AcDbEntity
8
0
100
AcDbPolyline
90
4
70
1
43
0.0
10
66.426213812052964
20
63
10
63
20
59.573786187947022
10
59.573786187947029
20
63
10
63
20
66.426213812052978
0
LWPOLYLINE
5
220
100
AcDbEntity
8
0
100
AcDbPolyline
90
4
70
1
43
0.0
10
75.426213812052964
20
63
10
72
20
59.573786187947022
10
68.573786187947036
20
63
10
72
20
66.426213812052978
0
LWPOLYLINE
5
221
100
AcDbEntity
8
0
100
AcDbPolyline
90
4
70
1
43
0.0
10
84.426213812052978
20
63
10
81
20
59.573786187947022
10
77.573786187947022
20
63
10
81
20
66.426213812052978
0
LWPOLYLINE
5
222
100
AcDbEntity
8
0
100
AcDbPolyline
90
4
70
1
43
0.0
10
93.426213812052978
20
63
10
90
20
59.573786187947022
10
86.573786187947022
20
63
10
90
20
66.426213812052978
0
LWPOLYLINE
5
223
100
AcDbEntity
8
0
100
AcDbPolyline
90
4
70
1
43
0.0
10
102.42621381205298
20
63
10
99
20
59.573786187947022
10
95.573786187947022
20
63
10
99
20
66.426213812052978
0
LWPOLYLINE
5
224
100
AcDbEntity
8
0
100
AcDbPolyline
90
4
70
1
43
0.0
10
111.42621381205299
20
63
10
108
20
59.573786187947022
10
104.57378618794704
20
63
10
108
20
66.426213812052978
0
LWPOLYLINE
5
225
100
AcDbEntity
8
0
100
AcDbPolyline
90
4
70
1
43
0.0
10
120.42621381205299
20
63
10
117.00000000000001
20
59.573786187947022
10
113.57378618794704
20
63
10
117.00000000000001
20
66.426213812052978
0
LWPOLYLINE
5
226
100
AcDbEntity
8
0
100
AcDbPolyline
90
4
70
1
43
0.0
10
129.42621381205296
20
63
10
126
20
59.573786187947022
10
122.57378618794702
20
63
10
126
20
66.426213812052978
0
LWPOLYLINE
5
227
100
AcDbEntity
8
0
100
AcDbPolyline
90
4
70
1
43
0.0
10
138.42621381205299
20
63
10
135
20
59.573786187947022
10
131.57378618794701
20
63
10
135
20
66.426213812052978
0
LWPOLYLINE
5
228
100
AcDbEntity
8
0
100
AcDbPolyline
90
4
70
1
43
0.0
10
4.4868739838327922
20
-7.913087795885775
10
1.0606601717798203
20
-4.4868739838327993
10
4.4868739838327878
20
-1.0606601717798203
10
7.9130926313181318
20
-4.4868787160412928
0
LWPOLYLINE
5
229
100
AcDbEntity
8
0
100
AcDbPolyline
90
4
70
1
43
0.0
10
147.42621381205299
20
-3.3932972893084432e-16
10
144
20
-3.4262138120529748
10
140.57378618794704
20
3.3932972893084432e-16
10
144
20
3.4262138120529748
0
LWPOLYLINE
5
230
100
AcDbEntity
8
0
100
AcDbPolyline
90
4
70
1
43
0.0
10
147.42621381205299
20
9
10
144
20
5.5737861879470252
10
140.57378618794704
20
9
10
144
20
12.426213812052975
0
LWPOLYLINE
5
231
100
AcDbEntity
8
0
100
AcDbPolyline
90
4
70
1
43
0.0
10
147.42621381205299
20
18
10
144
20
14.573786187947025
10
140.57378618794704
20
18
10
144
20
21.426213812052978
0
LWPOLYLINE
5
232
100
AcDbEntity
8
0
100
AcDbPolyline
90
4
70
1
43
0.0
10
147.42621381205299
20
27
10
144
20
23.573786187947029
10
140.57378618794704
20
27
10
144
20
30.426213812052975
0
LWPOLYLINE
5
233
100
AcDbEntity
8
0
100
AcDbPolyline
90
4
70
1
43
0.0
10
147.42621381205299
20
36
10
144
20
32.573786187947029
10
140.57378618794704
20
36
10
144
20
39.426213812052978
0
LWPOLYLINE
5
234
100
AcDbEntity
8
0
100
AcDbPolyline
90
4
70
1
43
0.0
10
147.42621381205299
20
45
10
144
20
41.573786187947022
10
140.57378618794704
20
45
10
144
20
48.426213812052978
0
LWPOLYLINE
5
235
100
AcDbEntity
8
0
100
AcDbPolyline
90
4
70
1
43
0.0
10
147.42621381205299
20
54
10
144
20
50.573786187947022
10
140.57378618794704
20
54
10
144
20
57.426213812052978
0
LWPOLYLINE
5
236
100
AcDbEntity
8
0
100
AcDbPolyline
90
4
70
1
43
0.0
10
147.42621381205299
20
63
10
144
20
59.573786187947022
10
140.57378618794704
20
63
10
144
20
66.426213812052978
0
LWPOLYLINE
5
237
100
AcDbEntity
8
0
100
AcDbPolyline
90
4
70
1
43
0.0
10
13.486873983832792
20
-7.913087795885775
10
10.060660171779821
20
-4.4868739838327993
10
13.486873983832787
20
-1.0606601717798203
10
16.913092631318133
20
-4.4868787160412928
0
LWPOLYLINE
5
238
100
AcDbEntity
8
0
100
AcDbPolyline
90
4
70
1
43
0.0
10
22.48687398383279
20
-7.913087795885775
10
19.060660171779823
20
-4.4868739838327993
10
22.486873983832787
20
-1.0606601717798203
10
25.913092631318129
20
-4.4868787160412928
0
LWPOLYLINE
5
239
100
AcDbEntity
8
0
100
AcDbPolyline
90
4
70
1
43
0.0
10
31.486873983832794
20
-7.913087795885775
10
28.060660171779823
20
-4.4868739838327993
10
31.48687398383279
20
-1.0606601717798203
10
34.913092631318136
20
-4.4868787160412928
0
LWPOLYLINE
5
240
100
AcDbEntity
8
0
100
AcDbPolyline
90
4
70
1
43
0.0
10
40.486873983832794
20
-7.913087795885775
10
37.060660171779823
20
-4.4868739838327993
10
40.486873983832787
20
-1.0606601717798203
10
43.913092631318129
20
-4.4868787160412928
0
LWPOLYLINE
5
241
100
AcDbEntity
8
0
100
AcDbPolyline
90
4
70
1
43
0.0
10
49.486873983832787
20
-7.913087795885775
10
46.060660171779816
20
-4.4868739838327993
10
49.486873983832787
20
-1.0606601717798203
10
52.913092631318136
20
-4.4868787160412928
0
LWPOLYLINE
5
242
100
AcDbEntity
8
0
100
AcDbPolyline
90
4
70
1
43
0.0
10
58.486873983832794
20
-7.913087795885775
10
55.060660171779823
20
-4.4868739838327993
10
58.486873983832794
20
-1.0606601717798203
10
61.913092631318136
20
-4.4868787160412928
0
LWPOLYLINE
5
243
100
AcDbEntity
8
0
100
AcDbPolyline
90
4
70
1
43
0.0
10
67.486873983832794
20
-7.913087795885775
10
64.060660171779816
20
-4.4868739838327993
10
67.486873983832794
20
-1.0606601717798203
10
70.913092631318136
20
-4.4868787160412928
0
LWPOLYLINE
5
244
100
AcDbEntity
8
0
100
AcDbPolyline
90
4
70
1
43
0.0
10
76.486873983832794
20
-7.913087795885775
10
73.060660171779816
20
-4.4868739838327993
10
76.486873983832794
20
-1.0606601717798203
10
79.913092631318136
20
-4.4868787160412928
0
LWPOLYLINE
5
245
100
AcDbEntity
8
0
100
AcDbPolyline
90
4
70
1
43
0.0
10
85.486873983832794
20
-7.913087795885775
10
82.060660171779816
20
-4.4868739838327993
10
85.48687398383278
20
-1.0606601717798203
10
88.913092631318136
20
-4.4868787160412928
0
LWPOLYLINE
5
246
100
AcDbEntity
8
0
100
AcDbPolyline
90
4
70
1
43
0.0
10
94.486873983832794
20
-7.913087795885775
10
91.060660171779816
20
-4.4868739838327993
10
94.48687398383278
20
-1.0606601717798203
10
97.913092631318136
20
-4.4868787160412928
0
LWPOLYLINE
5
247
100
AcDbEntity
8
0
100
AcDbPolyline
90
4
70
1
43
0.0
10
103.48687398383279
20
-7.913087795885775
10
100.06066017177983
20
-4.4868739838327993
10
103.48687398383278
20
-1.0606601717798203
10
106.91309263131814
20
-4.4868787160412928
0
LWPOLYLINE
5
248
100
AcDbEntity
8
0
100
AcDbPolyline
90
4
70
1
43
0.0
10
112.48687398383281
20
-7.913087795885775
10
109.06066017177983
20
-4.4868739838327993
10
112.48687398383279
20
-1.0606601717798203
10
115.91309263131814
20
-4.4868787160412928
0
LWPOLYLINE
5
249
100
AcDbEntity
8
0
100
AcDbPolyline
90
4
70
1
43
0.0
10
121.48687398383281
20
-7.913087795885775
10
118.06066017177983
20
-4.4868739838327993
10
121.48687398383279
20
-1.0606601717798203
10
124.91309263131814
20
-4.4868787160412928
0
LWPOLYLINE
5
250
100
AcDbEntity
8
0
100
AcDbPolyline
90
4
70
1
43
0.0
10
130.48687398383279
20
-7.913087795885775
10
127.06066017177982
20
-4.4868739838327993
10
130.48687398383277
20
-1.0606601717798203
10
133.91309263131814
20
-4.4868787160412928
0
LWPOLYLINE
5
251
100
AcDbEntity
8
0
100
AcDbPolyline
90
4
70
1
43
0.0
10
139.48687398383279
20
-7.913087795885775
10
136.06066017177983
20
-4.4868739838327993
10
139.48687398383277
20
-1.0606601717798203
10
142.91309263131814
20
-4.4868787160412928
0
LWPOLYLINE
5
252
100
AcDbEntity
8
0
100
AcDbPolyline
90
4
70
1
43
0.0
10
4.4868739838327922
20
1.0869122041142254
10
1.0606601717798203
20
4.5131260161672007
10
4.4868739838327878
20
7.9393398282201799
10
7.9130926313181318
20
4.5131212839587072
0
LWPOLYLINE
5
253
100
AcDbEntity
8
0
100
AcDbPolyline
90
4
70
1
43
0.0
10
13.486873983832792
20
1.0869122041142254
10
10.060660171779821
20
4.5131260161672007
10
13.486873983832787
20
7.9393398282201799
10
16.913092631318133
20
4.5131212839587072
0
LWPOLYLINE
5
254
100
AcDbEntity
8
0
100
AcDbPolyline
90
4
70
1
43
0.0
10
22.48687398383279
20
1.0869122041142254
10
19.060660171779823
20
4.5131260161672007
10
22.486873983832787
20
7.9393398282201799
10
25.913092631318129
20
4.5131212839587072
0
LWPOLYLINE
5
255
100
AcDbEntity
8
0
100
AcDbPolyline
90
4
70
1
43
0.0
10
31.486873983832794
20
1.0869122041142254
10
28.060660171779823
20
4.5131260161672007
10
31.48687398383279
20
7.9393398282201799
10
34.913092631318136
20
4.5131212839587072
0
LWPOLYLINE
5
256
100
AcDbEntity
8
0
100
AcDbPolyline
90
4
70
1
43
0.0
10
40.486873983832794
20
1.0869122041142254
10
37.060660171779823
20
4.5131260161672007
10
40.486873983832787
20
7.9393398282201799
10
43.913092631318129
20
4.5131212839587072
0
LWPOLYLINE
5
257
100
AcDbEntity
8
0
100
AcDbPolyline
90
4
70
1
43
0.0
10
49.486873983832787
20
1.0869122041142254
10
46.060660171779816
20
4.5131260161672007
10
49.486873983832787
20
7.9393398282201799
10
52.913092631318136
20
4.5131212839587072
0
LWPOLYLINE
5
258
100
AcDbEntity
8
0
100
AcDbPolyline
90
4
70
1
43
0.0
10
58.486873983832794
20
1.0869122041142254
10
55.060660171779823
20
4.5131260161672007
10
58.486873983832794
20
7.9393398282201799
10
61.913092631318136
20
4.5131212839587072
0
LWPOLYLINE
5
259
100
AcDbEntity
8
0
100
AcDbPolyline
90
4
70
1
43
0.0
10
67.486873983832794
20
1.0869122041142254
10
64.060660171779816
20
4.5131260161672007
10
67.486873983832794
20
7.9393398282201799
10
70.913092631318136
20
4.5131212839587072
0
LWPOLYLINE
5
260
100
AcDbEntity
8
0
100
AcDbPolyline
90
4
70
1
43
0.0
10
76.486873983832794
20
1.0869122041142254
10
73.060660171779816
20
4.5131260161672007
10
76.486873983832794
20
7.9393398282201799
10
79.913092631318136
20
4.5131212839587072
0
LWPOLYLINE
5
261
100
AcDbEntity
8
0
100
AcDbPolyline
90
4
70
1
43
0.0
10
85.486873983832794
20
1.0869122041142254
10
82.060660171779816
20
4.5131260161672007
10
85.48687398383278
20
7.9393398282201799
10
88.913092631318136
20
4.5131212839587072
0
LWPOLYLINE
5
262
100
AcDbEntity
8
0
100
AcDbPolyline
90
4
70
1
43
0.0
10
94.486873983832794
20
1.0869122041142254
10
91.060660171779816
20
4.5131260161672007
10
94.48687398383278
20
7.9393398282201799
10
97.913092631318136
20
4.5131212839587072
0
LWPOLYLINE
5
263
100
AcDbEntity
8
0
100
AcDbPolyline
90
4
70
1
43
0.0
10
103.48687398383279
20
1.0869122041142254
10
100.06066017177983
20
4.5131260161672007
10
103.48687398383278
20
7.9393398282201799
10
106.91309263131814
20
4.5131212839587072
0
LWPOLYLINE
5
264
100
AcDbEntity
8
0
100
AcDbPolyline
90
4
70
1
43
0.0
10
112.48687398383281
20
1.0869122041142254
10
109.06066017177983
20
4.5131260161672007
10
112.48687398383279
20
7.9393398282201799
10
115.91309263131814
20
4.5131212839587072
0
LWPOLYLINE
5
265
100
AcDbEntity
8
0
100
AcDbPolyline
90
4
70
1
43
0.0
10
121.48687398383281
20
1.0869122041142254
10
118.06066017177983
20
4.5131260161672007
10
121.48687398383279
20
7.9393398282201799
10
124.91309263131814
20
4.5131212839587072
0
LWPOLYLINE
5
266
100
AcDbEntity
8
0
100
AcDbPolyline
90
4
70
1
43
0.0
10
130.48687398383279
20
1.0869122041142254
10
127.06066017177982
20
4.5131260161672007
10
130.48687398383277
20
7.9393398282201799
10
133.91309263131814
20
4.5131212839587072
0
LWPOLYLINE
5
267
100
AcDbEntity
8
0
100
AcDbPolyline
90
4
70
1
43
0.0
10
139.48687398383279
20
1.0869122041142254
10
136.06066017177983
20
4.5131260161672007
10
139.48687398383277
20
7.9393398282201799
10
142.91309263131814
20
4.5131212839587072
0
LWPOLYLINE
5
268
100
AcDbEntity
8
0
100
AcDbPolyline
90
4
70
1
43
0.0
10
4.4868739838327922
20
10.086912204114228
10
1.0606601717798203
20
13.513126016167201
10
4.4868739838327878
20
16.939339828220177
10
7.9130926313181318
20
13.513121283958709
0
LWPOLYLINE
5
269
100
AcDbEntity
8
0
100
AcDbPolyline
90
4
70
1
43
0.0
10
13.486873983832792
20
10.086912204114228
10
10.060660171779821
20
13.513126016167201
10
13.486873983832787
20
16.939339828220177
10
16.913092631318133
20
13.513121283958709
0
LWPOLYLINE
5
270
100
AcDbEntity
8
0
100
AcDbPolyline
90
4
70
1
43
0.0
10
22.48687398383279
20
10.086912204114228
10
19.060660171779823
20
13.513126016167201
10
22.486873983832787
20
16.939339828220177
10
25.913092631318129
20
13.513121283958709
0
LWPOLYLINE
5
271
100
AcDbEntity
8
0
100
AcDbPolyline
90
4
70
1
43
0.0
10
31.486873983832794
20
10.086912204114228
10
28.060660171779823
20
13.513126016167201
10
31.48687398383279
20
16.939339828220177
10
34.913092631318136
20
13.513121283958709
0
LWPOLYLINE
5
272
100
AcDbEntity
8
0
100
AcDbPolyline
90
4
70
1
43
0.0
10
40.486873983832794
20
10.086912204114228
10
37.060660171779823
20
13.513126016167201
10
40.486873983832787
20
16.939339828220177
10
43.913092631318129
20
13.513121283958709
0
LWPOLYLINE
5
273
100
AcDbEntity
8
0
100
AcDbPolyline
90
4
70
1
43
0.0
10
49.486873983832787
20
10.086912204114228
10
46.060660171779816
20
13.513126016167201
10
49.486873983832787
20
16.939339828220177
10
52.913092631318136
20
13.513121283958709
0
LWPOLYLINE
5
274
100
AcDbEntity
8
0
100
AcDbPolyline
90
4
70
1
43
0.0
10
58.486873983832794
20
10.086912204114228
10
55.060660171779823
20
13.513126016167201
10
58.486873983832794
20
16.939339828220177
10
61.913092631318136
20
13.513121283958709
0
LWPOLYLINE
5
275
100
AcDbEntity
8
0
100
AcDbPolyline
90
4
70
1
43
0.0
10
67.486873983832794
20
10.086912204114228
10
64.060660171779816
20
13.513126016167201
10
67.486873983832794
20
16.939339828220177
10
70.913092631318136
20
13.513121283958709
0
LWPOLYLINE
5
276
100
AcDbEntity
8
0
100
AcDbPolyline
90
4
70
1
43
0.0
10
76.486873983832794
20
10.086912204114228
10
73.060660171779816
20
13.513126016167201
10
76.486873983832794
20
16.939339828220177
10
79.913092631318136
20
13.513121283958709
0
LWPOLYLINE
5
277
100
AcDbEntity
8
0
100
AcDbPolyline
90
4
70
1
43
0.0
10
85.486873983832794
20
10.086912204114228
10
82.060660171779816
20
13.513126016167201
10
85.48687398383278
20
16.939339828220177
10
88.913092631318136
20
13.513121283958709
0
LWPOLYLINE
5
278
100
AcDbEntity
8
0
100
AcDbPolyline
90
4
70
1
43
0.0
10
94.486873983832794
20
10.086912204114228
10
91.060660171779816
20
13.513126016167201
10
94.48687398383278
20
16.939339828220177
10
97.913092631318136
20
13.513121283958709
0
LWPOLYLINE
5
279
100
AcDbEntity
8
0
100
AcDbPolyline
90
4
70
1
43
0.0
10
103.48687398383279
20
10.086912204114228
10
100.06066017177983
20
13.513126016167201
10
103.48687398383278
20
16.939339828220177
10
106.91309263131814
20
13.513121283958709
0
LWPOLYLINE
5
280
100
AcDbEntity
8
0
100
AcDbPolyline
90
4
70
1
43
0.0
10
112.48687398383281
20
10.086912204114228
10
109.06066017177983
20
13.513126016167201
10
112.48687398383279
20
16.939339828220177
10
115.91309263131814
20
13.513121283958709
0
LWPOLYLINE
5
281
100
AcDbEntity
8
0
100
AcDbPolyline
90
4
70
1
43
0.0
10
121.48687398383281
20
10.086912204114228
10
118.06066017177983
20
13.513126016167201
10
121.48687398383279
20
16.939339828220177
10
124.91309263131814
20
13.513121283958709
0
LWPOLYLINE
5
282
100
AcDbEntity
8
0
100
AcDbPolyline
90
4
70
1
43
0.0
10
130.48687398383279
20
10.086912204114228
10
127.06066017177982
20
13.513126016167201
10
130.48687398383277
20
16.939339828220177
10
133.91309263131814
20
13.513121283958709
0
LWPOLYLINE
5
283
100
AcDbEntity
8
0
100
AcDbPolyline
90
4
70
1
43
0.0
10
139.48687398383279
20
10.086912204114228
10
136.06066017177983
20
13.513126016167201
10
139.48687398383277
20
16.939339828220177
10
142.91309263131814
20
13.513121283958709
0
LWPOLYLINE
5
284
100
AcDbEntity
8
0
100
AcDbPolyline
90
4
70
1
43
0.0
10
4.4868739838327922
20
19.086912204114228
10
1.0606601717798203
20
22.513126016167206
10
4.4868739838327878
20
25.939339828220184
10
7.9130926313181318
20
22.513121283958707
0
LWPOLYLINE
5
285
100
AcDbEntity
8
0
100
AcDbPolyline
90
4
70
1
43
0.0
10
13.486873983832792
20
19.086912204114228
10
10.060660171779821
20
22.513126016167206
10
13.486873983832787
20
25.939339828220184
10
16.913092631318133
20
22.513121283958707
0
LWPOLYLINE
5
286
100
AcDbEntity
8
0
100
AcDbPolyline
90
4
70
1
43
0.0
10
22.48687398383279
20
19.086912204114228
10
19.060660171779823
20
22.513126016167206
10
22.486873983832787
20
25.939339828220184
10
25.913092631318129
20
22.513121283958707
0
LWPOLYLINE
5
287
100
AcDbEntity
8
0
100
AcDbPolyline
90
4
70
1
43
0.0
10
31.486873983832794
20
19.086912204114228
10
28.060660171779823
20
22.513126016167206
10
31.48687398383279
20
25.939339828220184
10
34.913092631318136
20
22.513121283958707
0
LWPOLYLINE
5
288
100
AcDbEntity
8
0
100
AcDbPolyline
90
4
70
1
43
0.0
10
40.486873983832794
20
19.086912204114228
10
37.060660171779823
20
22.513126016167206
10
40.486873983832787
20
25.939339828220184
10
43.913092631318129
20
22.513121283958707
0
LWPOLYLINE
5
289
100
AcDbEntity
8
0
100
AcDbPolyline
90
4
70
1
43
0.0
10
49.486873983832787
20
19.086912204114228
10
46.060660171779816
20
22.513126016167206
10
49.486873983832787
20
25.939339828220184
10
52.913092631318136
20
22.513121283958707
0
LWPOLYLINE
5
290
100
AcDbEntity
8
0
100
AcDbPolyline
90
4
70
1
43
0.0
10
58.486873983832794
20
19.086912204114228
10
55.060660171779823
20
22.513126016167206
10
58.486873983832794
20
25.939339828220184
10
61.913092631318136
20
22.513121283958707
0
LWPOLYLINE
5
291
100
AcDbEntity
8
0
100
AcDbPolyline
90
4
70
1
43
0.0
10
67.486873983832794
20
19.086912204114228
10
64.060660171779816
20
22.513126016167206
10
67.486873983832794
20
25.939339828220184
10
70.913092631318136
20
22.513121283958707
0
LWPOLYLINE
5
292
100
AcDbEntity
8
0
100
AcDbPolyline
90
4
70
1
43
0.0
10
76.486873983832794
20
19.086912204114228
10
73.060660171779816
20
22.513126016167206
10
76.486873983832794
20
25.939339828220184
10
79.913092631318136
20
22.513121283958707
0
LWPOLYLINE
5
293
100
AcDbEntity
8
0
100
AcDbPolyline
90
4
70
1
43
0.0
10
85.486873983832794
20
19.086912204114228
10
82.060660171779816
20
22.513126016167206
10
85.48687398383278
20
25.939339828220184
10
88.913092631318136
20
22.513121283958707
0
LWPOLYLINE
5
294
100
AcDbEntity
8
0
100
AcDbPolyline
90
4
70
1
43
0.0
10
94.486873983832794
20
19.086912204114228
10
91.060660171779816
20
22.513126016167206
10
94.48687398383278
20
25.939339828220184
10
97.913092631318136
20
22.513121283958707
0
LWPOLYLINE
5
295
100
AcDbEntity
8
0
100
AcDbPolyline
90
4
70
1
43
0.0
10
103.48687398383279
20
19.086912204114228
10
100.06066017177983
20
22.513126016167206
10
103.48687398383278
20
25.939339828220184
10
106.91309263131814
20
22.513121283958707
0
LWPOLYLINE
5
296
100
AcDbEntity
8
0
100
AcDbPolyline
90
4
70
1
43
0.0
10
112.48687398383281
20
19.086912204114228
10
109.06066017177983
20
22.513126016167206
10
112.48687398383279
20
25.939339828220184
10
115.91309263131814
20
22.513121283958707
0
LWPOLYLINE
5
297
100
AcDbEntity
8
0
100
AcDbPolyline
90
4
70
1
43
0.0
10
121.48687398383281
20
19.086912204114228
10
118.06066017177983
20
22.513126016167206
10
121.48687398383279
20
25.939339828220184
10
124.91309263131814
20
22.513121283958707
0
LWPOLYLINE
5
298
100
AcDbEntity
8
0
100
AcDbPolyline
90
4
70
1
43
0.0
10
130.48687398383279
20
19.086912204114228
10
127.06066017177982
20
22.513126016167206
10
130.48687398383277
20
25.939339828220184
10
133.91309263131814
20
22.513121283958707
0
LWPOLYLINE
5
299
100
AcDbEntity
8
0
100
AcDbPolyline
90
4
70
1
43
0.0
10
139.48687398383279
20
19.086912204114228
10
136.06066017177983
20
22.513126016167206
10
139.48687398383277
20
25.939339828220184
10
142.91309263131814
20
22.513121283958707
0
LWPOLYLINE
5
300
100
AcDbEntity
8
0
100
AcDbPolyline
90
4
70
1
43
0.0
10
4.4868739838327922
20
28.086912204114224
10
1.0606601717798203
20
31.513126016167199
10
4.4868739838327878
20
34.939339828220184
10
7.9130926313181318
20
31.513121283958707
0
LWPOLYLINE
5
301
100
AcDbEntity
8
0
100
AcDbPolyline
90
4
70
1
43
0.0
10
13.486873983832792
20
28.086912204114224
10
10.060660171779821
20
31.513126016167199
10
13.486873983832787
20
34.939339828220184
10
16.913092631318133
20
31.513121283958707
0
LWPOLYLINE
5
302
100
AcDbEntity
8
0
100
AcDbPolyline
90
4
70
1
43
0.0
10
22.48687398383279
20
28.086912204114224
10
19.060660171779823
20
31.513126016167199
10
22.486873983832787
20
34.939339828220184
10
25.913092631318129
20
31.513121283958707
0
LWPOLYLINE
5
303
100
AcDbEntity
8
0
100
AcDbPolyline
90
4
70
1
43
0.0
10
31.486873983832794
20
28.086912204114224
10
28.060660171779823
20
31.513126016167199
10
31.48687398383279
20
34.939339828220184
10
34.913092631318136
20
31.513121283958707
0
LWPOLYLINE
5
304
100
AcDbEntity
8
0
100
AcDbPolyline
90
4
70
1
43
0.0
10
40.486873983832794
20
28.086912204114224
10
37.060660171779823
20
31.513126016167199
10
40.486873983832787
20
34.939339828220184
10
43.913092631318129
20
31.513121283958707
0
LWPOLYLINE
5
305
100
AcDbEntity
8
0
100
AcDbPolyline
90
4
70
1
43
0.0
10
49.486873983832787
20
28.086912204114224
10
46.060660171779816
20
31.513126016167199
10
49.486873983832787
20
34.939339828220184
10
52.913092631318136
20
31.513121283958707
0
LWPOLYLINE
5
306
100
AcDbEntity
8
0
100
AcDbPolyline
90
4
70
1
43
0.0
10
58.486873983832794
20
28.086912204114224
10
55.060660171779823
20
31.513126016167199
10
58.486873983832794
20
34.939339828220184
10
61.913092631318136
20
31.513121283958707
0
LWPOLYLINE
5
307
100
AcDbEntity
8
0
100
AcDbPolyline
90
4
70
1
43
0.0
10
67.486873983832794
20
28.086912204114224
10
64.060660171779816
20
31.513126016167199
10
67.486873983832794
20
34.939339828220184
10
70.913092631318136
20
31.513121283958707
0
LWPOLYLINE
5
308
100
AcDbEntity
8
0
100
AcDbPolyline
90
4
70
1
43
0.0
10
76.486873983832794
20
28.086912204114224
10
73.060660171779816
20
31.513126016167199
10
76.486873983832794
20
34.939339828220184
10
79.913092631318136
20
31.513121283958707
0
LWPOLYLINE
5
309
100
AcDbEntity
8
0
100
AcDbPolyline
90
4
70
1
43
0.0
10
85.486873983832794
20
28.086912204114224
10
82.060660171779816
20
31.513126016167199
10
85.48687398383278
20
34.939339828220184
10
88.913092631318136
20
31.513121283958707
0
LWPOLYLINE
5
310
100
AcDbEntity
8
0
100
AcDbPolyline
90
4
70
1
43
0.0
10
94.486873983832794
20
28.086912204114224
10
91.060660171779816
20
31.513126016167199
10
94.48687398383278
20
34.939339828220184
10
97.913092631318136
20
31.513121283958707
0
LWPOLYLINE
5
311
100
AcDbEntity
8
0
100
AcDbPolyline
90
4
70
1
43
0.0
10
103.48687398383279
20
28.086912204114224
10
100.06066017177983
20
31.513126016167199
10
103.48687398383278
20
34.939339828220184
10
106.91309263131814
20
31.513121283958707
0
LWPOLYLINE
5
312
100
AcDbEntity
8
0
100
AcDbPolyline
90
4
70
1
43
0.0
10
112.48687398383281
20
28.086912204114224
10
109.06066017177983
20
31.513126016167199
10
112.48687398383279
20
34.939339828220184
10
115.91309263131814
20
31.513121283958707
0
LWPOLYLINE
5
313
100
AcDbEntity
8
0
100
AcDbPolyline
90
4
70
1
43
0.0
10
121.48687398383281
20
28.086912204114224
10
118.06066017177983
20
31.513126016167199
10
121.48687398383279
20
34.939339828220184
10
124.91309263131814
20
31.513121283958707
0
LWPOLYLINE
5
314
100
AcDbEntity
8
0
100
AcDbPolyline
90
4
70
1
43
0.0
10
130.48687398383279
20
28.086912204114224
10
127.06066017177982
20
31.513126016167199
10
130.48687398383277
20
34.939339828220184
10
133.91309263131814
20
31.513121283958707
0
LWPOLYLINE
5
315
100
AcDbEntity
8
0
100
AcDbPolyline
90
4
70
1
43
0.0
10
139.48687398383279
20
28.086912204114224
10
136.06066017177983
20
31.513126016167199
10
139.48687398383277
20
34.939339828220184
10
142.91309263131814
20
31.513121283958707
0
LWPOLYLINE
5
316
100
AcDbEntity
8
0
100
AcDbPolyline
90
4
70
1
43
0.0
10
4.4868739838327922
20
37.086912204114228
10
1.0606601717798203
20
40.513126016167206
10
4.4868739838327878
20
43.939339828220184
10
7.9130926313181318
20
40.513121283958711
0
LWPOLYLINE
5
317
100
AcDbEntity
8
0
100
AcDbPolyline
90
4
70
1
43
0.0
10
13.486873983832792
20
37.086912204114228
10
10.060660171779821
20
40.513126016167206
10
13.486873983832787
20
43.939339828220184
10
16.913092631318133
20
40.513121283958711
0
LWPOLYLINE
5
318
100
AcDbEntity
8
0
100
AcDbPolyline
90
4
70
1
43
0.0
10
22.48687398383279
20
37.086912204114228
10
19.060660171779823
20
40.513126016167206
10
22.486873983832787
20
43.939339828220184
10
25.913092631318129
20
40.513121283958711
0
LWPOLYLINE
5
319
100
AcDbEntity
8
0
100
AcDbPolyline
90
4
70
1
43
0.0
10
31.486873983832794
20
37.086912204114228
10
28.060660171779823
20
40.513126016167206
10
31.48687398383279
20
43.939339828220184
10
34.913092631318136
20
40.513121283958711
0
LWPOLYLINE
5
320
100
AcDbEntity
8
0
100
AcDbPolyline
90
4
70
1
43
0.0
10
40.486873983832794
20
37.086912204114228
10
37.060660171779823
20
40.513126016167206
10
40.486873983832787
20
43.939339828220184
10
43.913092631318129
20
40.513121283958711
0
LWPOLYLINE
5
321
100
AcDbEntity
8
0
100
AcDbPolyline
90
4
70
1
43
0.0
10
49.486873983832787
20
37.086912204114228
10
46.060660171779816
20
40.513126016167206
10
49.486873983832787
20
43.939339828220184
10
52.913092631318136
20
40.513121283958711
0
LWPOLYLINE
5
322
100
AcDbEntity
8
0
100
AcDbPolyline
90
4
70
1
43
0.0
10
58.486873983832794
20
37.086912204114228
10
55.060660171779823
20
40.513126016167206
10
58.486873983832794
20
43.939339828220184
10
61.913092631318136
20
40.513121283958711
0
LWPOLYLINE
5
323
100
AcDbEntity
8
0
100
AcDbPolyline
90
4
70
1
43
0.0
10
67.486873983832794
20
37.086912204114228
10
64.060660171779816
20
40.513126016167206
10
67.486873983832794
20
43.939339828220184
10
70.913092631318136
20
40.513121283958711
0
LWPOLYLINE
5
324
100
AcDbEntity
8
0
100
AcDbPolyline
90
4
70
1
43
0.0
10
76.486873983832794
20
37.086912204114228
10
73.060660171779816
20
40.513126016167206
10
76.486873983832794
20
43.939339828220184
10
79.913092631318136
20
40.513121283958711
0
LWPOLYLINE
5
325
100
AcDbEntity
8
0
100
AcDbPolyline
90
4
70
1
43
0.0
10
85.486873983832794
20
37.086912204114228
10
82.060660171779816
20
40.513126016167206
10
85.48687398383278
20
43.939339828220184
10
88.913092631318136
20
40.513121283958711
0
LWPOLYLINE
5
326
100
AcDbEntity
8
0
100
AcDbPolyline
90
4
70
1
43
0.0
10
94.486873983832794
20
37.086912204114228
10
91.060660171779816
20
40.513126016167206
10
94.48687398383278
20
43.939339828220184
10
97.913092631318136
20
40.513121283958711
0
LWPOLYLINE
5
327
100
AcDbEntity
8
0
100
AcDbPolyline
90
4
70
1
43
0.0
10
103.48687398383279
20
37.086912204114228
10
100.06066017177983
20
40.513126016167206
10
103.48687398383278
20
43.939339828220184
10
106.91309263131814
20
40.513121283958711
0
LWPOLYLINE
5
328
100
AcDbEntity
8
0
100
AcDbPolyline
90
4
70
1
43
0.0
10
112.48687398383281
20
37.086912204114228
10
109.06066017177983
20
40.513126016167206
10
112.48687398383279
20
43.939339828220184
10
115.91309263131814
20
40.513121283958711
0
LWPOLYLINE
5
329
100
AcDbEntity
8
0
100
AcDbPolyline
90
4
70
1
43
0.0
10
121.48687398383281
20
37.086912204114228
10
118.06066017177983
20
40.513126016167206
10
121.48687398383279
20
43.939339828220184
10
124.91309263131814
20
40.513121283958711
0
LWPOLYLINE
5
330
100
AcDbEntity
8
0
100
AcDbPolyline
90
4
70
1
43
0.0
10
130.48687398383279
20
37.086912204114228
10
127.06066017177982
20
40.513126016167206
10
130.48687398383277
20
43.939339828220184
10
133.91309263131814
20
40.513121283958711
0
LWPOLYLINE
5
331
100
AcDbEntity
8
0
100
AcDbPolyline
90
4
70
1
43
0.0
10
139.48687398383279
20
37.086912204114228
10
136.06066017177983
20
40.513126016167206
10
139.48687398383277
20
43.939339828220184
10
142.91309263131814
20
40.513121283958711
0
LWPOLYLINE
5
332
100
AcDbEntity
8
0
100
AcDbPolyline
90
4
70
1
43
0.0
10
4.4868739838327922
20
46.086912204114228
10
1.0606601717798203
20
49.513126016167206
10
4.4868739838327878
20
52.939339828220184
10
7.9130926313181318
20
49.513121283958711
0
LWPOLYLINE
5
333
100
AcDbEntity
8
0
100
AcDbPolyline
90
4
70
1
43
0.0
10
13.486873983832792
20
46.086912204114228
10
10.060660171779821
20
49.513126016167206
10
13.486873983832787
20
52.939339828220184
10
16.913092631318133
20
49.513121283958711
0
LWPOLYLINE
5
334
100
AcDbEntity
8
0
100
AcDbPolyline
90
4
70
1
43
0.0
10
22.48687398383279
20
46.086912204114228
10
19.060660171779823
20
49.513126016167206
10
22.486873983832787
20
52.939339828220184
10
25.913092631318129
20
49.513121283958711
0
LWPOLYLINE
5
335
100
AcDbEntity
8
0
100
AcDbPolyline
90
4
70
1
43
0.0
10
31.486873983832794
20
46.086912204114228
10
28.060660171779823
20
49.513126016167206
10
31.48687398383279
20
52.939339828220184
10
34.913092631318136
20
49.513121283958711
0
LWPOLYLINE
5
336
100
AcDbEntity
8
0
100
AcDbPolyline
90
4
70
1
43
0.0
10
40.486873983832794
20
46.086912204114228
10
37.060660171779823
20
49.513126016167206
10
40.486873983832787
20
52.939339828220184
10
43.913092631318129
20
49.513121283958711
0
LWPOLYLINE
5
337
100
AcDbEntity
8
0
100
AcDbPolyline
90
4
70
1
43
0.0
10
49.486873983832787
20
46.086912204114228
10
46.060660171779816
20
49.513126016167206
10
49.486873983832787
20
52.939339828220184
10
52.913092631318136
20
49.513121283958711
0
LWPOLYLINE
5
338
100
AcDbEntity
8
0
100
AcDbPolyline
90
4
70
1
43
0.0
10
58.486873983832794
20
46.086912204114228
10
55.060660171779823
20
49.513126016167206
10
58.486873983832794
20
52.939339828220184
10
61.913092631318136
20
49.513121283958711
0
LWPOLYLINE
5
339
100
AcDbEntity
8
0
100
AcDbPolyline
90
4
70
1
43
0.0
10
67.486873983832794
20
46.086912204114228
10
64.060660171779816
20
49.513126016167206
10
67.486873983832794
20
52.939339828220184
10
70.913092631318136
20
49.513121283958711
0
LWPOLYLINE
5
340
100
AcDbEntity
8
0
100
AcDbPolyline
90
4
70
1
43
0.0
10
76.486873983832794
20
46.086912204114228
10
73.060660171779816
20
49.513126016167206
10
76.486873983832794
20
52.939339828220184
10
79.913092631318136
20
49.513121283958711
0
LWPOLYLINE
5
341
100
AcDbEntity
8
0
100
AcDbPolyline
90
4
70
1
43
0.0
10
85.486873983832794
20
46.086912204114228
10
82.060660171779816
20
49.513126016167206
10
85.48687398383278
20
52.939339828220184
10
88.913092631318136
20
49.513121283958711
0
LWPOLYLINE
5
342
100
AcDbEntity
8
0
100
AcDbPolyline
90
4
70
1
43
0.0
10
94.486873983832794
20
46.086912204114228
10
91.060660171779816
20
49.513126016167206
10
94.48687398383278
20
52.939339828220184
10
97.913092631318136
20
49.513121283958711
0
LWPOLYLINE
5
343
100
AcDbEntity
8
0
100
AcDbPolyline
90
4
70
1
43
0.0
10
103.48687398383279
20
46.086912204114228
10
100.06066017177983
20
49.513126016167206
10
103.48687398383278
20
52.939339828220184
10
106.91309263131814
20
49.513121283958711
0
LWPOLYLINE
5
344
100
AcDbEntity
8
0
100
AcDbPolyline
90
4
70
1
43
0.0
10
112.48687398383281
20
46.086912204114228
10
109.06066017177983
20
49.513126016167206
10
112.48687398383279
20
52.939339828220184
10
115.91309263131814
20
49.513121283958711
0
LWPOLYLINE
5
345
100
AcDbEntity
8
0
100
AcDbPolyline
90
4
70
1
43
0.0
10
121.48687398383281
20
46.086912204114228
10
118.06066017177983
20
49.513126016167206
10
121.48687398383279
20
52.939339828220184
10
124.91309263131814
20
49.513121283958711
0
LWPOLYLINE
5
346
100
AcDbEntity
8
0
100
AcDbPolyline
90
4
70
1
43
0.0
10
130.48687398383279
20
46.086912204114228
10
127.06066017177982
20
49.513126016167206
10
130.48687398383277
20
52.939339828220184
10
133.91309263131814
20
49.513121283958711
0
LWPOLYLINE
5
347
100
AcDbEntity
8
0
100
AcDbPolyline
90
4
70
1
43
0.0
10
139.48687398383279
20
46.086912204114228
10
136.06066017177983
20
49.513126016167206
10
139.48687398383277
20
52.939339828220184
10
142.91309263131814
20
49.513121283958711
0
LWPOLYLINE
5
348
100
AcDbEntity
8
0
100
AcDbPolyline
90
4
70
1
43
0.0
10
4.4868739838327922
20
55.086912204114221
10
1.0606601717798203
20
58.513126016167199
10
4.4868739838327878
20
61.939339828220177
10
7.9130926313181318
20
58.513121283958711
0
LWPOLYLINE
5
349
100
AcDbEntity
8
0
100
AcDbPolyline
90
4
70
1
43
0.0
10
13.486873983832792
20
55.086912204114221
10
10.060660171779821
20
58.513126016167199
10
13.486873983832787
20
61.939339828220177
10
16.913092631318133
20
58.513121283958711
0
LWPOLYLINE
5
350
100
AcDbEntity
8
0
100
AcDbPolyline
90
4
70
1
43
0.0
10
22.48687398383279
20
55.086912204114221
10
19.060660171779823
20
58.513126016167199
10
22.486873983832787
20
61.939339828220177
10
25.913092631318129
20
58.513121283958711
0
LWPOLYLINE
5
351
100
AcDbEntity
8
0
100
AcDbPolyline
90
4
70
1
43
0.0
10
31.486873983832794
20
55.086912204114221
10
28.060660171779823
20
58.513126016167199
10
31.48687398383279
20
61.939339828220177
10
34.913092631318136
20
58.513121283958711
0
LWPOLYLINE
5
352
100
AcDbEntity
8
0
100
AcDbPolyline
90
4
70
1
43
0.0
10
40.486873983832794
20
55.086912204114221
10
37.060660171779823
20
58.513126016167199
10
40.486873983832787
20
61.939339828220177
10
43.913092631318129
20
58.513121283958711
0
LWPOLYLINE
5
353
100
AcDbEntity
8
0
100
AcDbPolyline
90
4
70
1
43
0.0
10
49.486873983832787
20
55.086912204114221
10
46.060660171779816
20
58.513126016167199
10
49.486873983832787
20
61.939339828220177
10
52.913092631318136
20
58.513121283958711
0
LWPOLYLINE
5
354
100
AcDbEntity
8
0
100
AcDbPolyline
90
4
70
1
43
0.0
10
58.486873983832794
20
55.086912204114221
10
55.060660171779823
20
58.513126016167199
10
58.486873983832794
20
61.939339828220177
10
61.913092631318136
20
58.513121283958711
0
LWPOLYLINE
5
355
100
AcDbEntity
8
0
100
AcDbPolyline
90
4
70
1
43
0.0
10
67.486873983832794
20
55.086912204114221
10
64.060660171779816
20
58.513126016167199
10
67.486873983832794
20
61.939339828220177
10
70.913092631318136
20
58.513121283958711
0
LWPOLYLINE
5
356
100
AcDbEntity
8
0
100
AcDbPolyline
90
4
70
1
43
0.0
10
76.486873983832794
20
55.086912204114221
10
73.060660171779816
20
58.513126016167199
10
76.486873983832794
20
61.939339828220177
10
79.913092631318136
20
58.513121283958711
0
LWPOLYLINE
5
357
100
AcDbEntity
8
0
100
AcDbPolyline
90
4
70
1
43
0.0
10
85.486873983832794
20
55.086912204114221
10
82.060660171779816
20
58.513126016167199
10
85.48687398383278
20
61.939339828220177
10
88.913092631318136
20
58.513121283958711
0
LWPOLYLINE
5
358
100
AcDbEntity
8
0
100
AcDbPolyline
90
4
70
1
43
0.0
10
94.486873983832794
20
55.086912204114221
10
91.060660171779816
20
58.513126016167199
10
94.48687398383278
20
61.939339828220177
10
97.913092631318136
20
58.513121283958711
0
LWPOLYLINE
5
359
100
AcDbEntity
8
0
100
AcDbPolyline
90
4
70
1
43
0.0
10
103.48687398383279
20
55.086912204114221
10
100.06066017177983
20
58.513126016167199
10
103.48687398383278
20
61.939339828220177
10
106.91309263131814
20
58.513121283958711
0
LWPOLYLINE
5
360
100
AcDbEntity
8
0
100
AcDbPolyline
90
4
70
1
43
0.0
10
112.48687398383281
20
55.086912204114221
10
109.06066017177983
20
58.513126016167199
10
112.48687398383279
20
61.939339828220177
10
115.91309263131814
20
58.513121283958711
0
LWPOLYLINE
5
361
100
AcDbEntity
8
0
100
AcDbPolyline
90
4
70
1
43
0.0
10
121.48687398383281
20
55.086912204114221
10
118.06066017177983
20
58.513126016167199
10
121.48687398383279
20
61.939339828220177
10
124.91309263131814
20
58.513121283958711
0
LWPOLYLINE
5
362
100
AcDbEntity
8
0
100
AcDbPolyline
90
4
70
1
43
0.0
10
130.48687398383279
20
55.086912204114221
10
127.06066017177982
20
58.513126016167199
10
130.48687398383277
20
61.939339828220177
10
133.91309263131814
20
58.513121283958711
0
LWPOLYLINE
5
363
100
AcDbEntity
8
0
100
AcDbPolyline
90
4
70
1
43
0.0
10
139.48687398383279
20
55.086912204114221
10
136.06066017177983
20
58.513126016167199
10
139.48687398383277
20
61.939339828220177
10
142.91309263131814
20
58.513121283958711
0
LWPOLYLINE
5
364
100
AcDbEntity
8
0
100
AcDbPolyline
90
4
70
1
43
0.0
10
4.4868739838327922
20
64.086912204114228
10
1.0606601717798203
20
67.513126016167206
10
4.4868739838327878
20
70.939339828220184
10
7.9130926313181318
20
67.513121283958711
0
LWPOLYLINE
5
365
100
AcDbEntity
8
0
100
AcDbPolyline
90
4
70
1
43
0.0
10
13.486873983832792
20
64.086912204114228
10
10.060660171779821
20
67.513126016167206
10
13.486873983832787
20
70.939339828220184
10
16.913092631318133
20
67.513121283958711
0
LWPOLYLINE
5
366
100
AcDbEntity
8
0
100
AcDbPolyline
90
4
70
1
43
0.0
10
22.48687398383279
20
64.086912204114228
10
19.060660171779823
20
67.513126016167206
10
22.486873983832787
20
70.939339828220184
10
25.913092631318129
20
67.513121283958711
0
LWPOLYLINE
5
367
100
AcDbEntity
8
0
100
AcDbPolyline
90
4
70
1
43
0.0
10
31.486873983832794
20
64.086912204114228
10
28.060660171779823
20
67.513126016167206
10
31.48687398383279
20
70.939339828220184
10
34.913092631318136
20
67.513121283958711
0
LWPOLYLINE
5
368
100
AcDbEntity
8
0
100
AcDbPolyline
90
4
70
1
43
0.0
10
40.486873983832794
20
64.086912204114228
10
37.060660171779823
20
67.513126016167206
10
40.486873983832787
20
70.939339828220184
10
43.913092631318129
20
67.513121283958711
0
LWPOLYLINE
5
369
100
AcDbEntity
8
0
100
AcDbPolyline
90
4
70
1
43
0.0
10
49.486873983832787
20
64.086912204114228
10
46.060660171779816
20
67.513126016167206
10
49.486873983832787
20
70.939339828220184
10
52.913092631318136
20
67.513121283958711
0
LWPOLYLINE
5
370
100
AcDbEntity
8
0
100
AcDbPolyline
90
4
70
1
43
0.0
10
58.486873983832794
20
64.086912204114228
10
55.060660171779823
20
67.513126016167206
10
58.486873983832794
20
70.939339828220184
10
61.913092631318136
20
67.513121283958711
0
LWPOLYLINE
5
371
100
AcDbEntity
8
0
100
AcDbPolyline
90
4
70
1
43
0.0
10
67.486873983832794
20
64.086912204114228
10
64.060660171779816
20
67.513126016167206
10
67.486873983832794
20
70.939339828220184
10
70.913092631318136
20
67.513121283958711
0
LWPOLYLINE
5
372
100
AcDbEntity
8
0
100
AcDbPolyline
90
4
70
1
43
0.0
10
76.486873983832794
20
64.086912204114228
10
73.060660171779816
20
67.513126016167206
10
76.486873983832794
20
70.939339828220184
10
79.913092631318136
20
67.513121283958711
0
LWPOLYLINE
5
373
100
AcDbEntity
8
0
100
AcDbPolyline
90
4
70
1
43
0.0
10
85.486873983832794
20
64.086912204114228
10
82.060660171779816
20
67.513126016167206
10
85.48687398383278
20
70.939339828220184
10
88.913092631318136
20
67.513121283958711
0
LWPOLYLINE
5
374
100
AcDbEntity
8
0
100
AcDbPolyline
90
4
70
1
43
0.0
10
94.486873983832794
20
64.086912204114228
10
91.060660171779816
20
67.513126016167206
10
94.48687398383278
20
70.939339828220184
10
97.913092631318136
20
67.513121283958711
0
LWPOLYLINE
5
375
100
AcDbEntity
8
0
100
AcDbPolyline
90
4
70
1
43
0.0
10
103.48687398383279
20
64.086912204114228
10
100.06066017177983
20
67.513126016167206
10
103.48687398383278
20
70.939339828220184
10
106.91309263131814
20
67.513121283958711
0
LWPOLYLINE
5
376
100
AcDbEntity
8
0
100
AcDbPolyline
90
4
70
1
43
0.0
10
112.48687398383281
20
64.086912204114228
10
109.06066017177983
20
67.513126016167206
10
112.48687398383279
20
70.939339828220184
10
115.91309263131814
20
67.513121283958711
0
LWPOLYLINE
5
377
100
AcDbEntity
8
0
100
AcDbPolyline
90
4
70
1
43
0.0
10
121.48687398383281
20
64.086912204114228
10
118.06066017177983
20
67.513126016167206
10
121.48687398383279
20
70.939339828220184
10
124.91309263131814
20
67.513121283958711
0
LWPOLYLINE
5
378
100
AcDbEntity
8
0
100
AcDbPolyline
90
4
70
1
43
0.0
10
130.48687398383279
20
64.086912204114228
10
127.06066017177982
20
67.513126016167206
10
130.48687398383277
20
70.939339828220184
10
133.91309263131814
20
67.513121283958711
0
LWPOLYLINE
5
379
100
AcDbEntity
8
0
100
AcDbPolyline
90
4
70
1
43
0.0
10
139.48687398383279
20
64.086912204114228
10
136.06066017177983
20
67.513126016167206
10
139.48687398383277
20
70.939339828220184
10
142.91309263131814
20
67.513121283958711
0
ENDSEC
0
SECTION
2
OBJECTS
0
DICTIONARY
5
C
100
AcDbDictionary
3
ACAD_GROUP
350
D
3
ACAD_MLINESTYLE
350
17
0
DICTIONARY
5
D
100
AcDbDictionary
0
DICTIONARY
5
1A
330
C
100
AcDbDictionary
0
DICTIONARY
5
17
100
AcDbDictionary
0
ENDSEC
0
EOF
